Patient4_TMGait_0pt7_02_left_07_GRF.mot
version=1
nRows=39
nColumns=19
inDegrees=no
endheader
time	F1x	F1y	F1z	M1x	M1y	M1z	F2x	F2y	F2z	M2x	M2y	M2z	EC1x	EC1y	EC1z	EC2x	EC2y	EC2z
7.59	4.3928	-10.7734	5.2738	0.92111	-4.3337	-23.9025	-1.4942	787.3714	-60.4973	282.1796	66.911	796.25	-0.0592	0.0182	-0.0073	-0.0462	0.0165	0.9585
7.6016	2.8957	-6.2303	3.6955	0.249	-3.0578	-15.0018	-1.3489	778.6962	-63.2566	280.4143	67.9463	784.6047	-0.0592	0.0182	-0.0073	-0.0462	0.0165	0.9585
7.6133	1.6384	-2.3713	2.331	-0.32071	-1.9557	-7.4513	-0.75574	770.404	-65.5112	278.5019	68.3813	772.8152	-0.0592	0.0182	-0.0073	-0.0462	0.0165	0.9585
7.6249	0.65313	0.61715	1.2634	-0.76571	-1.1035	-1.6072	0.2445	763.0272	-67.0837	276.5424	68.167	761.5713	-0.0592	0.0182	-0.0073	-0.0462	0.0165	0.9585
7.6366	-0.019448	2.7329	0.50484	-1.0891	-0.50074	2.5021	1.5102	756.8492	-67.9934	274.6376	67.4154	751.3164	-0.0592	0.0182	-0.0073	-0.0462	0.0165	0.9585
7.6482	-0.47395	4.0993	0.021254	-1.3072	-0.13524	5.1463	2.9487	752.0156	-68.3583	272.887	66.2838	742.3048	-0.0592	0.0182	-0.0073	-0.0462	0.0165	0.9585
7.6599	-0.71755	4.8423	-0.2418	-1.4309	0.050364	6.5876	4.4642	748.5026	-68.3771	271.3512	64.9752	734.5862	-0.0592	0.0182	-0.0073	-0.0462	0.0165	0.9585
7.6715	-0.85726	5.102	-0.34092	-1.4688	0.089366	7.1513	6.0488	746.1529	-68.2046	270.0525	63.6147	728.0197	-0.0592	0.0182	-0.0073	-0.0462	0.0165	0.9585
7.6831	-0.91944	4.925	-0.32558	-1.4095	0.02756	6.9845	7.7237	744.7229	-68.0127	268.9726	62.329	722.3644	-0.0592	0.0182	-0.0073	-0.0462	0.0165	0.9585
7.6948	-0.98132	4.3643	-0.2383	-1.2404	-0.11259	6.2566	9.536	743.8594	-67.8526	268.0467	61.1284	717.2481	-0.0592	0.0182	-0.0073	-0.0462	0.0165	0.9585
7.7064	-1.0424	3.3589	-0.10851	-0.92403	-0.29969	4.9408	11.5341	743.1922	-67.7604	267.1875	60.0148	712.2922	-0.0592	0.0182	-0.0073	-0.0462	0.0165	0.9585
7.7181	-1.1401	1.8714	0.024512	-0.43041	-0.49856	3.0551	13.784	742.378	-67.6829	266.3065	58.9063	707.1305	-0.0592	0.0182	-0.0073	-0.0462	0.0165	0.9585
7.7297	-1.2119	-0.16485	0.14663	0.27259	-0.66872	0.52012	16.3088	741.1397	-67.5609	265.3291	57.7304	701.4769	-0.0592	0.0182	-0.0073	-0.0462	0.0165	0.9585
7.7414	-1.2388	-2.7303	0.2135	1.1836	-0.74923	-2.6162	19.1164	739.3207	-67.3419	264.2138	56.4251	695.1763	-0.0592	0.0182	-0.0073	-0.0462	0.0165	0.9585
7.753	-1.0936	-5.6896	0.21641	2.2476	-0.68732	-6.201	22.1602	736.8848	-66.9878	262.9548	54.9531	688.2073	-0.0592	0.0182	-0.0073	-0.0462	0.0165	0.9585
7.7646	-0.67342	-8.6465	0.097825	3.3128	-0.38272	-9.7568	25.3434	733.9155	-66.5424	261.5787	53.3641	680.68	-0.0592	0.0182	-0.0073	-0.0462	0.0165	0.9585
7.7763	0.20749	-10.8684	-0.16144	4.1017	0.25536	-12.4616	28.5372	730.5655	-66.067	260.1262	51.7358	672.7912	-0.0592	0.0182	-0.0073	-0.0462	0.0165	0.9585
7.7879	1.6998	-11.1595	-0.60992	4.1683	1.3418	-12.9085	31.5667	726.9487	-65.687	258.6156	50.2157	664.7198	-0.0592	0.0182	-0.0073	-0.0462	0.0165	0.9585
7.7996	3.9807	-7.8304	-1.2667	2.883	2.9692	-9.1478	34.2849	723.0993	-65.4946	257.0309	48.9136	656.5759	-0.0592	0.0182	-0.0073	-0.0462	0.0165	0.9585
7.8112	7.0933	1.3518	-2.1408	-0.57566	5.1717	1.436	36.5911	718.872	-65.5911	255.2925	47.9371	648.2999	-0.0592	0.0182	-0.0073	-0.0462	0.0165	0.9585
7.8229	10.978	18.9712	-3.1912	-7.1586	7.8726	21.8676	38.4557	713.8895	-65.9662	253.2466	47.2755	639.5984	-0.0592	0.0182	-0.0073	-0.0462	0.0165	0.9585
7.8345	15.2437	47.6555	-4.288	-17.8216	10.7746	55.2714	39.8946	707.5533	-66.5308	250.67	46.8472	629.9949	-0.0592	0.0182	-0.0073	-0.0462	0.0165	0.9585
7.8461	19.1275	89.3793	-5.2002	-33.2713	13.3106	103.9866	40.9291	699.0452	-67.0422	247.2829	46.4483	618.8129	-0.0592	0.0182	-0.0073	-0.0462	0.0165	0.9585
7.8578	21.2604	144.4164	-5.5268	-53.5683	14.4925	168.4173	41.5515	687.4684	-67.1682	242.7894	45.8231	605.3221	-0.0592	0.0182	-0.0073	-0.0462	0.0165	0.9585
7.8694	19.6497	209.8796	-4.6656	-77.5999	12.8728	245.2617	41.7221	671.8959	-66.5112	236.8979	44.6795	588.7614	-0.0592	0.0182	-0.0073	-0.0462	0.0165	0.9585
7.8811	12.5727	279.1694	-1.8345	-102.8794	6.9489	326.9123	41.4019	651.4806	-64.7027	229.3526	42.7555	568.4407	-0.0592	0.0182	-0.0073	-0.0462	0.0165	0.9585
7.8927	1.0871	343.6207	3.6423	-126.1948	-3.633	403.0938	40.6047	625.6574	-61.5368	219.9902	39.9119	543.8802	-0.0592	0.0182	-0.0073	-0.0462	0.0165	0.9585
7.9044	-11.885	395.4656	11.3932	-144.7788	-17.3163	464.2554	39.4064	594.1871	-57.0676	208.7459	36.1949	514.848	-0.0592	0.0182	-0.0073	-0.0462	0.0165	0.9585
7.916	-23.897	432.3428	20.0935	-157.8519	-31.6431	507.1995	37.9563	557.1066	-51.6836	195.6257	31.8945	481.3218	-0.0592	0.0182	-0.0073	-0.0462	0.0165	0.9585
7.9276	-34.2028	457.6769	28.2968	-166.7496	-44.6725	535.769	36.3703	514.8313	-45.8998	180.7486	27.3898	443.6169	-0.0592	0.0182	-0.0073	-0.0462	0.0165	0.9585
7.9393	-42.4587	477.4153	35.1296	-173.6916	-55.2957	556.8761	34.7138	468.1565	-40.2481	164.3585	23.0786	402.3773	-0.0592	0.0182	-0.0073	-0.0462	0.0165	0.9585
7.9509	-48.7616	496.395	40.0195	-180.4821	-62.9214	576.3598	32.9211	418.1451	-35.0219	146.8047	19.1912	358.5028	-0.0592	0.0182	-0.0073	-0.0462	0.0165	0.9585
7.9626	-53.1194	517.0933	42.968	-188.0256	-67.5734	597.1009	30.8127	366.0901	-30.2708	128.5301	15.8144	313.0999	-0.0592	0.0182	-0.0073	-0.0462	0.0165	0.9585
7.9742	-55.5027	539.9984	44.4276	-196.445	-69.7769	619.7553	28.1329	313.436	-25.9067	110.0402	12.956	267.4249	-0.0592	0.0182	-0.0073	-0.0462	0.0165	0.9585
7.9859	-55.9412	564.5215	45.0873	-205.4544	-70.3574	643.6921	24.7539	261.7728	-21.8602	91.8916	10.6096	222.849	-0.0592	0.0182	-0.0073	-0.0462	0.0165	0.9585
7.9975	-54.7774	590.0762	45.7456	-214.7385	-70.3401	668.362	20.6655	212.7435	-18.1504	74.6579	8.7984	180.7848	-0.0592	0.0182	-0.0073	-0.0462	0.0165	0.9585
8.0091	-52.3395	615.9577	46.9235	-223.981	-70.4612	693.1192	16.1192	167.8173	-14.8174	58.8593	7.4716	142.4338	-0.0592	0.0182	-0.0073	-0.0462	0.0165	0.9585
8.0208	-49.2144	641.4664	49.0894	-232.8751	-71.4329	717.304	11.5467	128.1551	-11.921	44.9023	6.5301	108.7338	-0.0592	0.0182	-0.0073	-0.0462	0.0165	0.9585
8.0324	-45.8508	665.7259	52.306	-241.1072	-73.4834	739.9697	7.4013	94.3344	-9.4506	33.0014	5.8051	80.0834	-0.0592	0.0182	-0.0073	-0.0462	0.0165	0.9585
